<svg xmlns="http://www.w3.org/2000/svg" width="960" height="520" viewBox="0 0 960 520">
<rect width="100%" height="100%" fill="#ffffff"/>
<text x="480.0" y="34" text-anchor="middle" font-family="Arial" font-size="24" fill="#16232a">Random Forest Feature Importance</text>
<text x="178" y="90.2" text-anchor="end" font-family="Arial" font-size="13" fill="#27343b">days_with_impressions</text>
<rect x="190" y="70.0" width="148.6" height="31.0" fill="#8B5FBF" rx="4"/>
<text x="346.6" y="90.2" font-family="Arial" font-size="13" fill="#27343b">0.204</text>
<text x="178" y="131.2" text-anchor="end" font-family="Arial" font-size="13" fill="#27343b">log_impressions_90d</text>
<rect x="190" y="111.0" width="95.1" height="31.0" fill="#8B5FBF" rx="4"/>
<text x="293.1" y="131.2" font-family="Arial" font-size="13" fill="#27343b">0.13</text>
<text x="178" y="172.2" text-anchor="end" font-family="Arial" font-size="13" fill="#27343b">avg_position</text>
<rect x="190" y="152.0" width="82.2" height="31.0" fill="#8B5FBF" rx="4"/>
<text x="280.2" y="172.2" font-family="Arial" font-size="13" fill="#27343b">0.113</text>
<text x="178" y="213.2" text-anchor="end" font-family="Arial" font-size="13" fill="#27343b">content_age_days</text>
<rect x="190" y="193.0" width="67.2" height="31.0" fill="#8B5FBF" rx="4"/>
<text x="265.2" y="213.2" font-family="Arial" font-size="13" fill="#27343b">0.0921</text>
<text x="178" y="254.2" text-anchor="end" font-family="Arial" font-size="13" fill="#27343b">position_tier</text>
<rect x="190" y="234.0" width="55.3" height="31.0" fill="#8B5FBF" rx="4"/>
<text x="253.3" y="254.2" font-family="Arial" font-size="13" fill="#27343b">0.0757</text>
<text x="178" y="295.1" text-anchor="end" font-family="Arial" font-size="13" fill="#27343b">age_tier</text>
<rect x="190" y="275.0" width="35.2" height="31.0" fill="#8B5FBF" rx="4"/>
<text x="233.2" y="295.1" font-family="Arial" font-size="13" fill="#27343b">0.0482</text>
<text x="178" y="336.1" text-anchor="end" font-family="Arial" font-size="13" fill="#27343b">char_count</text>
<rect x="190" y="316.0" width="28.7" height="31.0" fill="#8B5FBF" rx="4"/>
<text x="226.7" y="336.1" font-family="Arial" font-size="13" fill="#27343b">0.0392</text>
<text x="178" y="377.1" text-anchor="end" font-family="Arial" font-size="13" fill="#27343b">word_count</text>
<rect x="190" y="357.0" width="25.9" height="31.0" fill="#8B5FBF" rx="4"/>
<text x="223.9" y="377.1" font-family="Arial" font-size="13" fill="#27343b">0.0354</text>
<text x="178" y="418.1" text-anchor="end" font-family="Arial" font-size="13" fill="#27343b">impression_tier</text>
<rect x="190" y="398.0" width="24.2" height="31.0" fill="#8B5FBF" rx="4"/>
<text x="222.2" y="418.1" font-family="Arial" font-size="13" fill="#27343b">0.0331</text>
<text x="178" y="459.1" text-anchor="end" font-family="Arial" font-size="13" fill="#27343b">word_count_tier</text>
<rect x="190" y="439.0" width="21.6" height="31.0" fill="#8B5FBF" rx="4"/>
<text x="219.6" y="459.1" font-family="Arial" font-size="13" fill="#27343b">0.0296</text>
</svg>